<mxfile host="app.diagrams.net" modified="2024-05-15T08:36:22.424Z" agent="Mozilla/5.0 (Windows NT 10.0; Win64; x64) AppleWebKit/537.36 (KHTML, like Gecko) Chrome/124.0.0.0 Safari/537.36" etag="XvVvzE0DIXk5Kla50oOi" version="24.4.0" type="github">
  <diagram name="第 1 页" id="iLA39o-RpU0qDKZdJtG0">
    <mxGraphModel dx="2049" dy="1080" grid="1" gridSize="10" guides="1" tooltips="1" connect="1" arrows="1" fold="1" page="1" pageScale="1" pageWidth="1654" pageHeight="1169" math="0" shadow="0">
      <root>
        <mxCell id="0" />
        <mxCell id="1" parent="0" />
        <mxCell id="lfUsv0FCGvOHiWdtTo4K-1" style="edgeStyle=orthogonalEdgeStyle;rounded=0;orthogonalLoop=1;jettySize=auto;html=1;entryX=0;entryY=0.5;entryDx=0;entryDy=0;strokeColor=default;align=center;verticalAlign=middle;fontFamily=Helvetica;fontSize=15;fontColor=default;labelBackgroundColor=default;endArrow=block;endFill=1;" edge="1" parent="1" source="lfUsv0FCGvOHiWdtTo4K-5" target="lfUsv0FCGvOHiWdtTo4K-57">
          <mxGeometry relative="1" as="geometry" />
        </mxCell>
        <mxCell id="lfUsv0FCGvOHiWdtTo4K-2" style="edgeStyle=orthogonalEdgeStyle;rounded=0;orthogonalLoop=1;jettySize=auto;html=1;entryX=0;entryY=0.25;entryDx=0;entryDy=0;strokeColor=default;align=center;verticalAlign=middle;fontFamily=Helvetica;fontSize=15;fontColor=default;labelBackgroundColor=default;endArrow=block;endFill=1;" edge="1" parent="1" source="lfUsv0FCGvOHiWdtTo4K-5" target="lfUsv0FCGvOHiWdtTo4K-16">
          <mxGeometry relative="1" as="geometry">
            <Array as="points">
              <mxPoint x="480" y="565" />
              <mxPoint x="480" y="267" />
            </Array>
          </mxGeometry>
        </mxCell>
        <mxCell id="lfUsv0FCGvOHiWdtTo4K-3" style="edgeStyle=orthogonalEdgeStyle;rounded=0;orthogonalLoop=1;jettySize=auto;html=1;entryX=0;entryY=0.5;entryDx=0;entryDy=0;strokeColor=default;align=center;verticalAlign=middle;fontFamily=Helvetica;fontSize=15;fontColor=default;labelBackgroundColor=default;endArrow=block;endFill=1;" edge="1" parent="1" source="lfUsv0FCGvOHiWdtTo4K-5" target="lfUsv0FCGvOHiWdtTo4K-9">
          <mxGeometry relative="1" as="geometry">
            <Array as="points">
              <mxPoint x="480" y="565" />
              <mxPoint x="480" y="135" />
            </Array>
          </mxGeometry>
        </mxCell>
        <mxCell id="lfUsv0FCGvOHiWdtTo4K-4" style="edgeStyle=orthogonalEdgeStyle;rounded=0;orthogonalLoop=1;jettySize=auto;html=1;entryX=0;entryY=0.5;entryDx=0;entryDy=0;strokeColor=default;align=center;verticalAlign=middle;fontFamily=Helvetica;fontSize=15;fontColor=default;labelBackgroundColor=default;endArrow=block;endFill=1;" edge="1" parent="1" source="lfUsv0FCGvOHiWdtTo4K-5" target="lfUsv0FCGvOHiWdtTo4K-37">
          <mxGeometry relative="1" as="geometry">
            <Array as="points">
              <mxPoint x="480" y="565" />
              <mxPoint x="480" y="1000" />
              <mxPoint x="604" y="1000" />
            </Array>
          </mxGeometry>
        </mxCell>
        <mxCell id="lfUsv0FCGvOHiWdtTo4K-5" value="&lt;font style=&quot;font-size: 20px;&quot; face=&quot;黑体&quot;&gt;自组网多机协同导航终端系统&lt;/font&gt;" style="rounded=0;whiteSpace=wrap;html=1;strokeColor=default;align=center;verticalAlign=middle;fontFamily=Helvetica;fontSize=15;fontColor=default;labelBackgroundColor=default;fillColor=default;" vertex="1" parent="1">
          <mxGeometry x="200" y="530" width="170" height="70" as="geometry" />
        </mxCell>
        <mxCell id="lfUsv0FCGvOHiWdtTo4K-6" style="edgeStyle=orthogonalEdgeStyle;rounded=0;orthogonalLoop=1;jettySize=auto;html=1;entryX=0;entryY=0.5;entryDx=0;entryDy=0;fontFamily=Helvetica;fontSize=11;fontColor=default;labelBackgroundColor=default;endArrow=block;endFill=1;" edge="1" parent="1" source="lfUsv0FCGvOHiWdtTo4K-9" target="lfUsv0FCGvOHiWdtTo4K-11">
          <mxGeometry relative="1" as="geometry" />
        </mxCell>
        <mxCell id="lfUsv0FCGvOHiWdtTo4K-7" style="edgeStyle=orthogonalEdgeStyle;rounded=0;orthogonalLoop=1;jettySize=auto;html=1;entryX=0;entryY=0.5;entryDx=0;entryDy=0;fontFamily=Helvetica;fontSize=11;fontColor=default;labelBackgroundColor=default;endArrow=block;endFill=1;" edge="1" parent="1" source="lfUsv0FCGvOHiWdtTo4K-9" target="lfUsv0FCGvOHiWdtTo4K-12">
          <mxGeometry relative="1" as="geometry" />
        </mxCell>
        <mxCell id="lfUsv0FCGvOHiWdtTo4K-8" style="edgeStyle=orthogonalEdgeStyle;rounded=0;orthogonalLoop=1;jettySize=auto;html=1;entryX=0;entryY=0.5;entryDx=0;entryDy=0;fontFamily=Helvetica;fontSize=11;fontColor=default;labelBackgroundColor=default;endArrow=block;endFill=1;" edge="1" parent="1" source="lfUsv0FCGvOHiWdtTo4K-9" target="lfUsv0FCGvOHiWdtTo4K-10">
          <mxGeometry relative="1" as="geometry" />
        </mxCell>
        <mxCell id="lfUsv0FCGvOHiWdtTo4K-9" value="&lt;font style=&quot;font-size: 15px;&quot; face=&quot;黑体&quot;&gt;数据通信&lt;/font&gt;" style="rounded=0;whiteSpace=wrap;html=1;strokeColor=default;align=center;verticalAlign=middle;fontFamily=Helvetica;fontSize=15;fontColor=default;labelBackgroundColor=default;fillColor=default;" vertex="1" parent="1">
          <mxGeometry x="600" y="120" width="150" height="30" as="geometry" />
        </mxCell>
        <mxCell id="lfUsv0FCGvOHiWdtTo4K-10" value="&lt;font face=&quot;黑体&quot;&gt;车载有线通信&lt;/font&gt;" style="rounded=0;whiteSpace=wrap;html=1;strokeColor=default;align=center;verticalAlign=middle;fontFamily=Helvetica;fontSize=15;fontColor=default;labelBackgroundColor=default;fillColor=default;" vertex="1" parent="1">
          <mxGeometry x="797" y="80" width="150" height="30" as="geometry" />
        </mxCell>
        <mxCell id="lfUsv0FCGvOHiWdtTo4K-11" value="&lt;font face=&quot;黑体&quot;&gt;自组网无线通信&lt;/font&gt;" style="rounded=0;whiteSpace=wrap;html=1;strokeColor=default;align=center;verticalAlign=middle;fontFamily=Helvetica;fontSize=15;fontColor=default;labelBackgroundColor=default;fillColor=default;" vertex="1" parent="1">
          <mxGeometry x="797" y="120" width="150" height="30" as="geometry" />
        </mxCell>
        <mxCell id="lfUsv0FCGvOHiWdtTo4K-12" value="&lt;font face=&quot;黑体&quot;&gt;远程无线通信&lt;/font&gt;" style="rounded=0;whiteSpace=wrap;html=1;strokeColor=default;align=center;verticalAlign=middle;fontFamily=Helvetica;fontSize=15;fontColor=default;labelBackgroundColor=default;fillColor=default;" vertex="1" parent="1">
          <mxGeometry x="797" y="160" width="150" height="30" as="geometry" />
        </mxCell>
        <mxCell id="lfUsv0FCGvOHiWdtTo4K-13" style="edgeStyle=orthogonalEdgeStyle;rounded=0;orthogonalLoop=1;jettySize=auto;html=1;entryX=0;entryY=0.5;entryDx=0;entryDy=0;strokeColor=default;align=center;verticalAlign=middle;fontFamily=Helvetica;fontSize=15;fontColor=default;labelBackgroundColor=default;endArrow=block;endFill=1;" edge="1" parent="1" source="lfUsv0FCGvOHiWdtTo4K-16" target="lfUsv0FCGvOHiWdtTo4K-23">
          <mxGeometry relative="1" as="geometry" />
        </mxCell>
        <mxCell id="lfUsv0FCGvOHiWdtTo4K-14" style="edgeStyle=orthogonalEdgeStyle;rounded=0;orthogonalLoop=1;jettySize=auto;html=1;entryX=0;entryY=0.5;entryDx=0;entryDy=0;strokeColor=default;align=center;verticalAlign=middle;fontFamily=Helvetica;fontSize=15;fontColor=default;labelBackgroundColor=default;endArrow=block;endFill=1;" edge="1" parent="1" source="lfUsv0FCGvOHiWdtTo4K-16" target="lfUsv0FCGvOHiWdtTo4K-20">
          <mxGeometry relative="1" as="geometry" />
        </mxCell>
        <mxCell id="lfUsv0FCGvOHiWdtTo4K-15" style="edgeStyle=orthogonalEdgeStyle;rounded=0;orthogonalLoop=1;jettySize=auto;html=1;entryX=0;entryY=0.5;entryDx=0;entryDy=0;strokeColor=default;align=center;verticalAlign=middle;fontFamily=Helvetica;fontSize=15;fontColor=default;labelBackgroundColor=default;endArrow=block;endFill=1;" edge="1" parent="1" source="lfUsv0FCGvOHiWdtTo4K-16" target="lfUsv0FCGvOHiWdtTo4K-26">
          <mxGeometry relative="1" as="geometry" />
        </mxCell>
        <mxCell id="lfUsv0FCGvOHiWdtTo4K-16" value="&lt;font face=&quot;黑体&quot;&gt;信息分析处理&lt;/font&gt;" style="rounded=0;whiteSpace=wrap;html=1;strokeColor=default;align=center;verticalAlign=middle;fontFamily=Helvetica;fontSize=15;fontColor=default;labelBackgroundColor=default;fillColor=default;" vertex="1" parent="1">
          <mxGeometry x="600" y="260" width="150" height="30" as="geometry" />
        </mxCell>
        <mxCell id="lfUsv0FCGvOHiWdtTo4K-17" style="edgeStyle=orthogonalEdgeStyle;rounded=0;orthogonalLoop=1;jettySize=auto;html=1;entryX=0;entryY=0.5;entryDx=0;entryDy=0;strokeColor=default;align=center;verticalAlign=middle;fontFamily=Helvetica;fontSize=15;fontColor=default;labelBackgroundColor=default;endArrow=block;endFill=1;" edge="1" parent="1" source="lfUsv0FCGvOHiWdtTo4K-20" target="lfUsv0FCGvOHiWdtTo4K-28">
          <mxGeometry relative="1" as="geometry" />
        </mxCell>
        <mxCell id="lfUsv0FCGvOHiWdtTo4K-18" style="edgeStyle=orthogonalEdgeStyle;rounded=0;orthogonalLoop=1;jettySize=auto;html=1;entryX=0;entryY=0.5;entryDx=0;entryDy=0;strokeColor=default;align=center;verticalAlign=middle;fontFamily=Helvetica;fontSize=15;fontColor=default;labelBackgroundColor=default;endArrow=block;endFill=1;" edge="1" parent="1" source="lfUsv0FCGvOHiWdtTo4K-20" target="lfUsv0FCGvOHiWdtTo4K-29">
          <mxGeometry relative="1" as="geometry" />
        </mxCell>
        <mxCell id="lfUsv0FCGvOHiWdtTo4K-19" style="edgeStyle=orthogonalEdgeStyle;rounded=0;orthogonalLoop=1;jettySize=auto;html=1;entryX=0;entryY=0.5;entryDx=0;entryDy=0;strokeColor=default;align=center;verticalAlign=middle;fontFamily=Helvetica;fontSize=15;fontColor=default;labelBackgroundColor=default;endArrow=block;endFill=1;" edge="1" parent="1" source="lfUsv0FCGvOHiWdtTo4K-20" target="lfUsv0FCGvOHiWdtTo4K-27">
          <mxGeometry relative="1" as="geometry" />
        </mxCell>
        <mxCell id="lfUsv0FCGvOHiWdtTo4K-20" value="&lt;font face=&quot;黑体&quot;&gt;数据解析&lt;/font&gt;" style="rounded=0;whiteSpace=wrap;html=1;strokeColor=default;align=center;verticalAlign=middle;fontFamily=Helvetica;fontSize=15;fontColor=default;labelBackgroundColor=default;fillColor=default;" vertex="1" parent="1">
          <mxGeometry x="797" y="220" width="150" height="30" as="geometry" />
        </mxCell>
        <mxCell id="lfUsv0FCGvOHiWdtTo4K-21" value="" style="edgeStyle=orthogonalEdgeStyle;rounded=0;orthogonalLoop=1;jettySize=auto;html=1;strokeColor=default;align=center;verticalAlign=middle;fontFamily=Helvetica;fontSize=15;fontColor=default;labelBackgroundColor=default;endArrow=block;endFill=1;" edge="1" parent="1" source="lfUsv0FCGvOHiWdtTo4K-23" target="lfUsv0FCGvOHiWdtTo4K-30">
          <mxGeometry relative="1" as="geometry" />
        </mxCell>
        <mxCell id="lfUsv0FCGvOHiWdtTo4K-22" style="edgeStyle=orthogonalEdgeStyle;rounded=0;orthogonalLoop=1;jettySize=auto;html=1;entryX=0;entryY=0.5;entryDx=0;entryDy=0;strokeColor=default;align=center;verticalAlign=middle;fontFamily=Helvetica;fontSize=15;fontColor=default;labelBackgroundColor=default;endArrow=block;endFill=1;" edge="1" parent="1" source="lfUsv0FCGvOHiWdtTo4K-23" target="lfUsv0FCGvOHiWdtTo4K-31">
          <mxGeometry relative="1" as="geometry" />
        </mxCell>
        <mxCell id="lfUsv0FCGvOHiWdtTo4K-23" value="&lt;font face=&quot;黑体&quot;&gt;信息配准&lt;/font&gt;" style="rounded=0;whiteSpace=wrap;html=1;strokeColor=default;align=center;verticalAlign=middle;fontFamily=Helvetica;fontSize=15;fontColor=default;labelBackgroundColor=default;fillColor=default;" vertex="1" parent="1">
          <mxGeometry x="797" y="320" width="150" height="30" as="geometry" />
        </mxCell>
        <mxCell id="lfUsv0FCGvOHiWdtTo4K-24" value="" style="edgeStyle=orthogonalEdgeStyle;rounded=0;orthogonalLoop=1;jettySize=auto;html=1;strokeColor=default;align=center;verticalAlign=middle;fontFamily=Helvetica;fontSize=15;fontColor=default;labelBackgroundColor=default;endArrow=block;endFill=1;" edge="1" parent="1" source="lfUsv0FCGvOHiWdtTo4K-26" target="lfUsv0FCGvOHiWdtTo4K-32">
          <mxGeometry relative="1" as="geometry" />
        </mxCell>
        <mxCell id="lfUsv0FCGvOHiWdtTo4K-25" style="edgeStyle=orthogonalEdgeStyle;rounded=0;orthogonalLoop=1;jettySize=auto;html=1;entryX=0;entryY=0.5;entryDx=0;entryDy=0;strokeColor=default;align=center;verticalAlign=middle;fontFamily=Helvetica;fontSize=15;fontColor=default;labelBackgroundColor=default;endArrow=block;endFill=1;" edge="1" parent="1" source="lfUsv0FCGvOHiWdtTo4K-26" target="lfUsv0FCGvOHiWdtTo4K-33">
          <mxGeometry relative="1" as="geometry" />
        </mxCell>
        <mxCell id="lfUsv0FCGvOHiWdtTo4K-26" value="&lt;font face=&quot;黑体&quot;&gt;参数设置&lt;/font&gt;" style="rounded=0;whiteSpace=wrap;html=1;strokeColor=default;align=center;verticalAlign=middle;fontFamily=Helvetica;fontSize=15;fontColor=default;labelBackgroundColor=default;fillColor=default;" vertex="1" parent="1">
          <mxGeometry x="797" y="400" width="150" height="30" as="geometry" />
        </mxCell>
        <mxCell id="lfUsv0FCGvOHiWdtTo4K-27" value="&lt;font face=&quot;黑体&quot;&gt;GNSS&lt;/font&gt;" style="rounded=0;whiteSpace=wrap;html=1;strokeColor=default;align=center;verticalAlign=middle;fontFamily=Helvetica;fontSize=15;fontColor=default;labelBackgroundColor=default;fillColor=default;" vertex="1" parent="1">
          <mxGeometry x="990" y="180" width="150" height="30" as="geometry" />
        </mxCell>
        <mxCell id="lfUsv0FCGvOHiWdtTo4K-28" value="&lt;font face=&quot;黑体&quot;&gt;前轮转角数据&lt;/font&gt;" style="rounded=0;whiteSpace=wrap;html=1;strokeColor=default;align=center;verticalAlign=middle;fontFamily=Helvetica;fontSize=15;fontColor=default;labelBackgroundColor=default;fillColor=default;" vertex="1" parent="1">
          <mxGeometry x="990" y="220" width="150" height="30" as="geometry" />
        </mxCell>
        <mxCell id="lfUsv0FCGvOHiWdtTo4K-29" value="&lt;font face=&quot;黑体&quot;&gt;农机姿态数据&lt;/font&gt;" style="rounded=0;whiteSpace=wrap;html=1;strokeColor=default;align=center;verticalAlign=middle;fontFamily=Helvetica;fontSize=15;fontColor=default;labelBackgroundColor=default;fillColor=default;" vertex="1" parent="1">
          <mxGeometry x="990" y="260" width="150" height="30" as="geometry" />
        </mxCell>
        <mxCell id="lfUsv0FCGvOHiWdtTo4K-30" value="&lt;font face=&quot;黑体&quot;&gt;时间配准&lt;/font&gt;" style="rounded=0;whiteSpace=wrap;html=1;strokeColor=default;align=center;verticalAlign=middle;fontFamily=Helvetica;fontSize=15;fontColor=default;labelBackgroundColor=default;fillColor=default;" vertex="1" parent="1">
          <mxGeometry x="990" y="300" width="150" height="30" as="geometry" />
        </mxCell>
        <mxCell id="lfUsv0FCGvOHiWdtTo4K-31" value="&lt;font face=&quot;黑体&quot;&gt;空间配准&lt;/font&gt;" style="rounded=0;whiteSpace=wrap;html=1;strokeColor=default;align=center;verticalAlign=middle;fontFamily=Helvetica;fontSize=15;fontColor=default;labelBackgroundColor=default;fillColor=default;" vertex="1" parent="1">
          <mxGeometry x="990" y="340" width="150" height="30" as="geometry" />
        </mxCell>
        <mxCell id="lfUsv0FCGvOHiWdtTo4K-32" value="&lt;font face=&quot;黑体&quot;&gt;农机参数&lt;/font&gt;" style="rounded=0;whiteSpace=wrap;html=1;strokeColor=default;align=center;verticalAlign=middle;fontFamily=Helvetica;fontSize=15;fontColor=default;labelBackgroundColor=default;fillColor=default;" vertex="1" parent="1">
          <mxGeometry x="990" y="380" width="150" height="30" as="geometry" />
        </mxCell>
        <mxCell id="lfUsv0FCGvOHiWdtTo4K-33" value="&lt;font face=&quot;黑体&quot;&gt;农田地块选择&lt;/font&gt;" style="rounded=0;whiteSpace=wrap;html=1;strokeColor=default;align=center;verticalAlign=middle;fontFamily=Helvetica;fontSize=15;fontColor=default;labelBackgroundColor=default;fillColor=default;" vertex="1" parent="1">
          <mxGeometry x="990" y="420" width="150" height="30" as="geometry" />
        </mxCell>
        <mxCell id="lfUsv0FCGvOHiWdtTo4K-34" style="edgeStyle=orthogonalEdgeStyle;rounded=0;orthogonalLoop=1;jettySize=auto;html=1;entryX=0;entryY=0.5;entryDx=0;entryDy=0;strokeColor=default;align=center;verticalAlign=middle;fontFamily=Helvetica;fontSize=15;fontColor=default;labelBackgroundColor=default;endArrow=block;endFill=1;" edge="1" parent="1" source="lfUsv0FCGvOHiWdtTo4K-37" target="lfUsv0FCGvOHiWdtTo4K-44">
          <mxGeometry relative="1" as="geometry" />
        </mxCell>
        <mxCell id="lfUsv0FCGvOHiWdtTo4K-35" style="edgeStyle=orthogonalEdgeStyle;rounded=0;orthogonalLoop=1;jettySize=auto;html=1;entryX=0;entryY=0.5;entryDx=0;entryDy=0;strokeColor=default;align=center;verticalAlign=middle;fontFamily=Helvetica;fontSize=15;fontColor=default;labelBackgroundColor=default;endArrow=block;endFill=1;" edge="1" parent="1" source="lfUsv0FCGvOHiWdtTo4K-37" target="lfUsv0FCGvOHiWdtTo4K-41">
          <mxGeometry relative="1" as="geometry" />
        </mxCell>
        <mxCell id="lfUsv0FCGvOHiWdtTo4K-36" style="edgeStyle=orthogonalEdgeStyle;rounded=0;orthogonalLoop=1;jettySize=auto;html=1;entryX=0;entryY=0.5;entryDx=0;entryDy=0;strokeColor=default;align=center;verticalAlign=middle;fontFamily=Helvetica;fontSize=15;fontColor=default;labelBackgroundColor=default;endArrow=block;endFill=1;" edge="1" parent="1" source="lfUsv0FCGvOHiWdtTo4K-37" target="lfUsv0FCGvOHiWdtTo4K-47">
          <mxGeometry relative="1" as="geometry" />
        </mxCell>
        <mxCell id="lfUsv0FCGvOHiWdtTo4K-37" value="&lt;font face=&quot;黑体&quot;&gt;信息存储&lt;/font&gt;" style="rounded=0;whiteSpace=wrap;html=1;strokeColor=default;align=center;verticalAlign=middle;fontFamily=Helvetica;fontSize=15;fontColor=default;labelBackgroundColor=default;fillColor=default;" vertex="1" parent="1">
          <mxGeometry x="604" y="980" width="150" height="30" as="geometry" />
        </mxCell>
        <mxCell id="lfUsv0FCGvOHiWdtTo4K-38" style="edgeStyle=orthogonalEdgeStyle;rounded=0;orthogonalLoop=1;jettySize=auto;html=1;entryX=0;entryY=0.5;entryDx=0;entryDy=0;strokeColor=default;align=center;verticalAlign=middle;fontFamily=Helvetica;fontSize=15;fontColor=default;labelBackgroundColor=default;endArrow=block;endFill=1;" edge="1" parent="1" source="lfUsv0FCGvOHiWdtTo4K-41" target="lfUsv0FCGvOHiWdtTo4K-48">
          <mxGeometry relative="1" as="geometry" />
        </mxCell>
        <mxCell id="lfUsv0FCGvOHiWdtTo4K-39" style="edgeStyle=orthogonalEdgeStyle;rounded=0;orthogonalLoop=1;jettySize=auto;html=1;entryX=0;entryY=0.5;entryDx=0;entryDy=0;strokeColor=default;align=center;verticalAlign=middle;fontFamily=Helvetica;fontSize=15;fontColor=default;labelBackgroundColor=default;endArrow=block;endFill=1;" edge="1" parent="1" source="lfUsv0FCGvOHiWdtTo4K-41" target="lfUsv0FCGvOHiWdtTo4K-49">
          <mxGeometry relative="1" as="geometry" />
        </mxCell>
        <mxCell id="lfUsv0FCGvOHiWdtTo4K-40" style="edgeStyle=orthogonalEdgeStyle;rounded=0;orthogonalLoop=1;jettySize=auto;html=1;entryX=0;entryY=0.5;entryDx=0;entryDy=0;strokeColor=default;align=center;verticalAlign=middle;fontFamily=Helvetica;fontSize=15;fontColor=default;labelBackgroundColor=default;endArrow=block;endFill=1;" edge="1" parent="1" source="lfUsv0FCGvOHiWdtTo4K-41" target="lfUsv0FCGvOHiWdtTo4K-50">
          <mxGeometry relative="1" as="geometry" />
        </mxCell>
        <mxCell id="lfUsv0FCGvOHiWdtTo4K-41" value="&lt;font face=&quot;黑体&quot;&gt;农作信息&lt;/font&gt;" style="rounded=0;whiteSpace=wrap;html=1;strokeColor=default;align=center;verticalAlign=middle;fontFamily=Helvetica;fontSize=15;fontColor=default;labelBackgroundColor=default;fillColor=default;" vertex="1" parent="1">
          <mxGeometry x="801" y="940" width="150" height="30" as="geometry" />
        </mxCell>
        <mxCell id="lfUsv0FCGvOHiWdtTo4K-42" style="edgeStyle=orthogonalEdgeStyle;rounded=0;orthogonalLoop=1;jettySize=auto;html=1;entryX=0;entryY=0.5;entryDx=0;entryDy=0;strokeColor=default;align=center;verticalAlign=middle;fontFamily=Helvetica;fontSize=15;fontColor=default;labelBackgroundColor=default;endArrow=block;endFill=1;" edge="1" parent="1" source="lfUsv0FCGvOHiWdtTo4K-44" target="lfUsv0FCGvOHiWdtTo4K-51">
          <mxGeometry relative="1" as="geometry" />
        </mxCell>
        <mxCell id="lfUsv0FCGvOHiWdtTo4K-43" style="edgeStyle=orthogonalEdgeStyle;rounded=0;orthogonalLoop=1;jettySize=auto;html=1;entryX=0;entryY=0.5;entryDx=0;entryDy=0;strokeColor=default;align=center;verticalAlign=middle;fontFamily=Helvetica;fontSize=15;fontColor=default;labelBackgroundColor=default;endArrow=block;endFill=1;" edge="1" parent="1" source="lfUsv0FCGvOHiWdtTo4K-44" target="lfUsv0FCGvOHiWdtTo4K-52">
          <mxGeometry relative="1" as="geometry" />
        </mxCell>
        <mxCell id="lfUsv0FCGvOHiWdtTo4K-44" value="&lt;font face=&quot;黑体&quot;&gt;路径坐标&lt;/font&gt;" style="rounded=0;whiteSpace=wrap;html=1;strokeColor=default;align=center;verticalAlign=middle;fontFamily=Helvetica;fontSize=15;fontColor=default;labelBackgroundColor=default;fillColor=default;" vertex="1" parent="1">
          <mxGeometry x="801" y="1040" width="150" height="30" as="geometry" />
        </mxCell>
        <mxCell id="lfUsv0FCGvOHiWdtTo4K-45" style="edgeStyle=orthogonalEdgeStyle;rounded=0;orthogonalLoop=1;jettySize=auto;html=1;entryX=0;entryY=0.5;entryDx=0;entryDy=0;strokeColor=default;align=center;verticalAlign=middle;fontFamily=Helvetica;fontSize=15;fontColor=default;labelBackgroundColor=default;endArrow=block;endFill=1;" edge="1" parent="1" source="lfUsv0FCGvOHiWdtTo4K-47" target="lfUsv0FCGvOHiWdtTo4K-53">
          <mxGeometry relative="1" as="geometry" />
        </mxCell>
        <mxCell id="lfUsv0FCGvOHiWdtTo4K-46" style="edgeStyle=orthogonalEdgeStyle;rounded=0;orthogonalLoop=1;jettySize=auto;html=1;entryX=0;entryY=0.5;entryDx=0;entryDy=0;strokeColor=default;align=center;verticalAlign=middle;fontFamily=Helvetica;fontSize=15;fontColor=default;labelBackgroundColor=default;endArrow=block;endFill=1;" edge="1" parent="1" source="lfUsv0FCGvOHiWdtTo4K-47" target="lfUsv0FCGvOHiWdtTo4K-54">
          <mxGeometry relative="1" as="geometry" />
        </mxCell>
        <mxCell id="lfUsv0FCGvOHiWdtTo4K-47" value="&lt;font face=&quot;黑体&quot;&gt;偏差信息&lt;/font&gt;" style="rounded=0;whiteSpace=wrap;html=1;strokeColor=default;align=center;verticalAlign=middle;fontFamily=Helvetica;fontSize=15;fontColor=default;labelBackgroundColor=default;fillColor=default;" vertex="1" parent="1">
          <mxGeometry x="801" y="1139" width="150" height="30" as="geometry" />
        </mxCell>
        <mxCell id="lfUsv0FCGvOHiWdtTo4K-48" value="&lt;font face=&quot;黑体&quot;&gt;用户信息&lt;/font&gt;" style="rounded=0;whiteSpace=wrap;html=1;strokeColor=default;align=center;verticalAlign=middle;fontFamily=Helvetica;fontSize=15;fontColor=default;labelBackgroundColor=default;fillColor=default;" vertex="1" parent="1">
          <mxGeometry x="994" y="900" width="150" height="30" as="geometry" />
        </mxCell>
        <mxCell id="lfUsv0FCGvOHiWdtTo4K-49" value="&lt;font face=&quot;黑体&quot;&gt;地块信息&lt;/font&gt;" style="rounded=0;whiteSpace=wrap;html=1;strokeColor=default;align=center;verticalAlign=middle;fontFamily=Helvetica;fontSize=15;fontColor=default;labelBackgroundColor=default;fillColor=default;" vertex="1" parent="1">
          <mxGeometry x="994" y="940" width="150" height="30" as="geometry" />
        </mxCell>
        <mxCell id="lfUsv0FCGvOHiWdtTo4K-50" value="&lt;font face=&quot;黑体&quot;&gt;车辆信息&lt;/font&gt;" style="rounded=0;whiteSpace=wrap;html=1;strokeColor=default;align=center;verticalAlign=middle;fontFamily=Helvetica;fontSize=15;fontColor=default;labelBackgroundColor=default;fillColor=default;" vertex="1" parent="1">
          <mxGeometry x="994" y="980" width="150" height="30" as="geometry" />
        </mxCell>
        <mxCell id="lfUsv0FCGvOHiWdtTo4K-51" value="&lt;font face=&quot;黑体&quot;&gt;规划路径&lt;/font&gt;" style="rounded=0;whiteSpace=wrap;html=1;strokeColor=default;align=center;verticalAlign=middle;fontFamily=Helvetica;fontSize=15;fontColor=default;labelBackgroundColor=default;fillColor=default;" vertex="1" parent="1">
          <mxGeometry x="994" y="1030" width="150" height="30" as="geometry" />
        </mxCell>
        <mxCell id="lfUsv0FCGvOHiWdtTo4K-52" value="&lt;font face=&quot;黑体&quot;&gt;历史路径&lt;/font&gt;" style="rounded=0;whiteSpace=wrap;html=1;strokeColor=default;align=center;verticalAlign=middle;fontFamily=Helvetica;fontSize=15;fontColor=default;labelBackgroundColor=default;fillColor=default;" vertex="1" parent="1">
          <mxGeometry x="994" y="1070" width="150" height="30" as="geometry" />
        </mxCell>
        <mxCell id="lfUsv0FCGvOHiWdtTo4K-53" value="&lt;font face=&quot;黑体&quot;&gt;横向偏差&lt;/font&gt;" style="rounded=0;whiteSpace=wrap;html=1;strokeColor=default;align=center;verticalAlign=middle;fontFamily=Helvetica;fontSize=15;fontColor=default;labelBackgroundColor=default;fillColor=default;" vertex="1" parent="1">
          <mxGeometry x="994" y="1120" width="150" height="30" as="geometry" />
        </mxCell>
        <mxCell id="lfUsv0FCGvOHiWdtTo4K-54" value="&lt;font face=&quot;黑体&quot;&gt;航向偏差&lt;/font&gt;" style="rounded=0;whiteSpace=wrap;html=1;strokeColor=default;align=center;verticalAlign=middle;fontFamily=Helvetica;fontSize=15;fontColor=default;labelBackgroundColor=default;fillColor=default;" vertex="1" parent="1">
          <mxGeometry x="994" y="1160" width="150" height="30" as="geometry" />
        </mxCell>
        <mxCell id="lfUsv0FCGvOHiWdtTo4K-55" style="edgeStyle=orthogonalEdgeStyle;rounded=0;orthogonalLoop=1;jettySize=auto;html=1;entryX=0;entryY=0.5;entryDx=0;entryDy=0;strokeColor=default;align=center;verticalAlign=middle;fontFamily=Helvetica;fontSize=15;fontColor=default;labelBackgroundColor=default;endArrow=block;endFill=1;" edge="1" parent="1" source="lfUsv0FCGvOHiWdtTo4K-57" target="lfUsv0FCGvOHiWdtTo4K-61">
          <mxGeometry relative="1" as="geometry">
            <Array as="points">
              <mxPoint x="774" y="565" />
              <mxPoint x="774" y="515" />
            </Array>
          </mxGeometry>
        </mxCell>
        <mxCell id="lfUsv0FCGvOHiWdtTo4K-56" style="edgeStyle=orthogonalEdgeStyle;rounded=0;orthogonalLoop=1;jettySize=auto;html=1;entryX=0;entryY=0.5;entryDx=0;entryDy=0;strokeColor=default;align=center;verticalAlign=middle;fontFamily=Helvetica;fontSize=15;fontColor=default;labelBackgroundColor=default;endArrow=block;endFill=1;" edge="1" parent="1" source="lfUsv0FCGvOHiWdtTo4K-57" target="lfUsv0FCGvOHiWdtTo4K-63">
          <mxGeometry relative="1" as="geometry" />
        </mxCell>
        <mxCell id="lfUsv0FCGvOHiWdtTo4K-57" value="&lt;font face=&quot;黑体&quot;&gt;信息显示&lt;/font&gt;" style="rounded=0;whiteSpace=wrap;html=1;strokeColor=default;align=center;verticalAlign=middle;fontFamily=Helvetica;fontSize=15;fontColor=default;labelBackgroundColor=default;fillColor=default;" vertex="1" parent="1">
          <mxGeometry x="600" y="550" width="150" height="30" as="geometry" />
        </mxCell>
        <mxCell id="lfUsv0FCGvOHiWdtTo4K-58" style="edgeStyle=orthogonalEdgeStyle;rounded=0;orthogonalLoop=1;jettySize=auto;html=1;entryX=0;entryY=0.5;entryDx=0;entryDy=0;strokeColor=default;align=center;verticalAlign=middle;fontFamily=Helvetica;fontSize=15;fontColor=default;labelBackgroundColor=default;endArrow=block;endFill=1;" edge="1" parent="1" source="lfUsv0FCGvOHiWdtTo4K-61" target="lfUsv0FCGvOHiWdtTo4K-64">
          <mxGeometry relative="1" as="geometry" />
        </mxCell>
        <mxCell id="lfUsv0FCGvOHiWdtTo4K-59" style="edgeStyle=orthogonalEdgeStyle;rounded=0;orthogonalLoop=1;jettySize=auto;html=1;entryX=0;entryY=0.5;entryDx=0;entryDy=0;strokeColor=default;align=center;verticalAlign=middle;fontFamily=Helvetica;fontSize=15;fontColor=default;labelBackgroundColor=default;endArrow=block;endFill=1;" edge="1" parent="1" source="lfUsv0FCGvOHiWdtTo4K-61" target="lfUsv0FCGvOHiWdtTo4K-79">
          <mxGeometry relative="1" as="geometry" />
        </mxCell>
        <mxCell id="lfUsv0FCGvOHiWdtTo4K-60" style="edgeStyle=orthogonalEdgeStyle;rounded=0;orthogonalLoop=1;jettySize=auto;html=1;entryX=0;entryY=0.5;entryDx=0;entryDy=0;strokeColor=default;align=center;verticalAlign=middle;fontFamily=Helvetica;fontSize=15;fontColor=default;labelBackgroundColor=default;endArrow=block;endFill=1;" edge="1" parent="1" source="lfUsv0FCGvOHiWdtTo4K-61" target="lfUsv0FCGvOHiWdtTo4K-80">
          <mxGeometry relative="1" as="geometry" />
        </mxCell>
        <mxCell id="lfUsv0FCGvOHiWdtTo4K-61" value="&lt;font face=&quot;黑体&quot;&gt;图形显示&lt;/font&gt;" style="rounded=0;whiteSpace=wrap;html=1;strokeColor=default;align=center;verticalAlign=middle;fontFamily=Helvetica;fontSize=15;fontColor=default;labelBackgroundColor=default;fillColor=default;" vertex="1" parent="1">
          <mxGeometry x="797" y="500" width="150" height="30" as="geometry" />
        </mxCell>
        <mxCell id="lfUsv0FCGvOHiWdtTo4K-82" style="edgeStyle=orthogonalEdgeStyle;rounded=0;orthogonalLoop=1;jettySize=auto;html=1;entryX=0;entryY=0.5;entryDx=0;entryDy=0;" edge="1" parent="1" source="lfUsv0FCGvOHiWdtTo4K-63" target="lfUsv0FCGvOHiWdtTo4K-81">
          <mxGeometry relative="1" as="geometry" />
        </mxCell>
        <mxCell id="lfUsv0FCGvOHiWdtTo4K-63" value="&lt;font face=&quot;黑体&quot;&gt;数据显示&lt;/font&gt;" style="rounded=0;whiteSpace=wrap;html=1;strokeColor=default;align=center;verticalAlign=middle;fontFamily=Helvetica;fontSize=15;fontColor=default;labelBackgroundColor=default;fillColor=default;" vertex="1" parent="1">
          <mxGeometry x="797" y="712.5" width="150" height="30" as="geometry" />
        </mxCell>
        <mxCell id="lfUsv0FCGvOHiWdtTo4K-64" value="&lt;font face=&quot;黑体&quot;&gt;标定原点&lt;/font&gt;" style="rounded=0;whiteSpace=wrap;html=1;strokeColor=default;align=center;verticalAlign=middle;fontFamily=Helvetica;fontSize=15;fontColor=default;labelBackgroundColor=default;fillColor=default;" vertex="1" parent="1">
          <mxGeometry x="990" y="470" width="150" height="30" as="geometry" />
        </mxCell>
        <mxCell id="lfUsv0FCGvOHiWdtTo4K-65" value="&lt;font face=&quot;黑体&quot;&gt;经度、纬度、高程&lt;/font&gt;" style="rounded=0;whiteSpace=wrap;html=1;strokeColor=default;align=center;verticalAlign=middle;fontFamily=Helvetica;fontSize=15;fontColor=default;labelBackgroundColor=default;fillColor=default;" vertex="1" parent="1">
          <mxGeometry x="990" y="634" width="150" height="30" as="geometry" />
        </mxCell>
        <mxCell id="lfUsv0FCGvOHiWdtTo4K-66" value="&lt;font face=&quot;黑体&quot;&gt;横滚、俯仰、航向角&lt;/font&gt;" style="rounded=0;whiteSpace=wrap;html=1;strokeColor=default;align=center;verticalAlign=middle;fontFamily=Helvetica;fontSize=15;fontColor=default;labelBackgroundColor=default;fillColor=default;" vertex="1" parent="1">
          <mxGeometry x="990" y="674" width="150" height="30" as="geometry" />
        </mxCell>
        <mxCell id="lfUsv0FCGvOHiWdtTo4K-67" value="&lt;font face=&quot;黑体&quot;&gt;前轮转角&lt;/font&gt;" style="rounded=0;whiteSpace=wrap;html=1;strokeColor=default;align=center;verticalAlign=middle;fontFamily=Helvetica;fontSize=15;fontColor=default;labelBackgroundColor=default;fillColor=default;" vertex="1" parent="1">
          <mxGeometry x="990" y="714" width="150" height="30" as="geometry" />
        </mxCell>
        <mxCell id="lfUsv0FCGvOHiWdtTo4K-68" value="&lt;font face=&quot;黑体&quot;&gt;农机行驶速度&lt;/font&gt;" style="rounded=0;whiteSpace=wrap;html=1;strokeColor=default;align=center;verticalAlign=middle;fontFamily=Helvetica;fontSize=15;fontColor=default;labelBackgroundColor=default;fillColor=default;" vertex="1" parent="1">
          <mxGeometry x="990" y="794" width="150" height="30" as="geometry" />
        </mxCell>
        <mxCell id="lfUsv0FCGvOHiWdtTo4K-69" value="&lt;font face=&quot;黑体&quot;&gt;农田作业面积&lt;/font&gt;" style="rounded=0;whiteSpace=wrap;html=1;strokeColor=default;align=center;verticalAlign=middle;fontFamily=Helvetica;fontSize=15;fontColor=default;labelBackgroundColor=default;fillColor=default;" vertex="1" parent="1">
          <mxGeometry x="990" y="833" width="150" height="30" as="geometry" />
        </mxCell>
        <mxCell id="lfUsv0FCGvOHiWdtTo4K-70" value="&lt;font face=&quot;黑体&quot;&gt;农机参数&lt;/font&gt;" style="rounded=0;whiteSpace=wrap;html=1;strokeColor=default;align=center;verticalAlign=middle;fontFamily=Helvetica;fontSize=15;fontColor=default;labelBackgroundColor=default;fillColor=default;" vertex="1" parent="1">
          <mxGeometry x="990" y="754" width="150" height="30" as="geometry" />
        </mxCell>
        <mxCell id="lfUsv0FCGvOHiWdtTo4K-71" value="&lt;font face=&quot;黑体&quot;&gt;实时产量&lt;/font&gt;" style="rounded=0;whiteSpace=wrap;html=1;strokeColor=default;align=center;verticalAlign=middle;fontFamily=Helvetica;fontSize=15;fontColor=default;labelBackgroundColor=default;fillColor=default;" vertex="1" parent="1">
          <mxGeometry x="1160" y="633" width="150" height="30" as="geometry" />
        </mxCell>
        <mxCell id="lfUsv0FCGvOHiWdtTo4K-72" value="&lt;font face=&quot;黑体&quot;&gt;总收获产量&lt;/font&gt;" style="rounded=0;whiteSpace=wrap;html=1;strokeColor=default;align=center;verticalAlign=middle;fontFamily=Helvetica;fontSize=15;fontColor=default;labelBackgroundColor=default;fillColor=default;" vertex="1" parent="1">
          <mxGeometry x="1160" y="673" width="150" height="30" as="geometry" />
        </mxCell>
        <mxCell id="lfUsv0FCGvOHiWdtTo4K-73" value="&lt;font face=&quot;黑体&quot;&gt;亩产量&lt;/font&gt;" style="rounded=0;whiteSpace=wrap;html=1;strokeColor=default;align=center;verticalAlign=middle;fontFamily=Helvetica;fontSize=15;fontColor=default;labelBackgroundColor=default;fillColor=default;" vertex="1" parent="1">
          <mxGeometry x="1160" y="713" width="150" height="30" as="geometry" />
        </mxCell>
        <mxCell id="lfUsv0FCGvOHiWdtTo4K-74" value="&lt;font face=&quot;黑体&quot;&gt;谷物含水率&lt;br&gt;&lt;/font&gt;" style="rounded=0;whiteSpace=wrap;html=1;strokeColor=default;align=center;verticalAlign=middle;fontFamily=Helvetica;fontSize=15;fontColor=default;labelBackgroundColor=default;fillColor=default;" vertex="1" parent="1">
          <mxGeometry x="1160" y="753" width="150" height="30" as="geometry" />
        </mxCell>
        <mxCell id="lfUsv0FCGvOHiWdtTo4K-75" value="&lt;font face=&quot;黑体&quot;&gt;发动机转速&lt;/font&gt;" style="rounded=0;whiteSpace=wrap;html=1;strokeColor=default;align=center;verticalAlign=middle;fontFamily=Helvetica;fontSize=15;fontColor=default;labelBackgroundColor=default;fillColor=default;" vertex="1" parent="1">
          <mxGeometry x="1160" y="793" width="150" height="30" as="geometry" />
        </mxCell>
        <mxCell id="lfUsv0FCGvOHiWdtTo4K-76" value="&lt;font face=&quot;黑体&quot;&gt;割台高度&lt;/font&gt;" style="rounded=0;whiteSpace=wrap;html=1;strokeColor=default;align=center;verticalAlign=middle;fontFamily=Helvetica;fontSize=15;fontColor=default;labelBackgroundColor=default;fillColor=default;" vertex="1" parent="1">
          <mxGeometry x="1160" y="833" width="150" height="30" as="geometry" />
        </mxCell>
        <mxCell id="lfUsv0FCGvOHiWdtTo4K-77" value="&lt;font face=&quot;黑体&quot;&gt;谷物流量&lt;/font&gt;" style="rounded=0;whiteSpace=wrap;html=1;strokeColor=default;align=center;verticalAlign=middle;fontFamily=Helvetica;fontSize=15;fontColor=default;labelBackgroundColor=default;fillColor=default;" vertex="1" parent="1">
          <mxGeometry x="1160" y="593" width="150" height="30" as="geometry" />
        </mxCell>
        <mxCell id="lfUsv0FCGvOHiWdtTo4K-78" value="&lt;font face=&quot;黑体&quot;&gt;卫星差分状态及个数&lt;/font&gt;" style="rounded=0;whiteSpace=wrap;html=1;strokeColor=default;align=center;verticalAlign=middle;fontFamily=Helvetica;fontSize=15;fontColor=default;labelBackgroundColor=default;fillColor=default;" vertex="1" parent="1">
          <mxGeometry x="990" y="593" width="150" height="30" as="geometry" />
        </mxCell>
        <mxCell id="lfUsv0FCGvOHiWdtTo4K-79" value="&lt;font face=&quot;黑体&quot;&gt;规划路径&lt;/font&gt;" style="rounded=0;whiteSpace=wrap;html=1;strokeColor=default;align=center;verticalAlign=middle;fontFamily=Helvetica;fontSize=15;fontColor=default;labelBackgroundColor=default;fillColor=default;" vertex="1" parent="1">
          <mxGeometry x="990" y="510" width="150" height="30" as="geometry" />
        </mxCell>
        <mxCell id="lfUsv0FCGvOHiWdtTo4K-80" value="&lt;font face=&quot;黑体&quot;&gt;实际路径&lt;/font&gt;" style="rounded=0;whiteSpace=wrap;html=1;strokeColor=default;align=center;verticalAlign=middle;fontFamily=Helvetica;fontSize=15;fontColor=default;labelBackgroundColor=default;fillColor=default;" vertex="1" parent="1">
          <mxGeometry x="990" y="550" width="150" height="30" as="geometry" />
        </mxCell>
        <mxCell id="lfUsv0FCGvOHiWdtTo4K-81" value="" style="rounded=0;whiteSpace=wrap;html=1;strokeColor=default;align=center;verticalAlign=middle;fontFamily=Helvetica;fontSize=15;fontColor=default;labelBackgroundColor=default;fillColor=none;dashed=1;" vertex="1" parent="1">
          <mxGeometry x="980" y="585" width="340" height="285" as="geometry" />
        </mxCell>
      </root>
    </mxGraphModel>
  </diagram>
</mxfile>
